<?xml version="1.0" encoding="utf-8"?>
<!-- Generator: Adobe Illustrator 19.1.0, SVG Export Plug-In . SVG Version: 6.00 Build 0)  -->
<svg version="1.1" id="Layer_1" xmlns="http://www.w3.org/2000/svg" xmlns:xlink="http://www.w3.org/1999/xlink" x="0px" y="0px"
	 viewBox="0 0 100 100" style="enable-background:new 0 0 100 100;" xml:space="preserve">
<style type="text/css">
	.st0{fill:#FFFFFF;}
	.st1{fill:#C21E5C;}
</style>
<circle class="st0" cx="50" cy="50" r="45"/>
<g>
	<path class="st1" d="M50,0C22.4,0,0,22.4,0,50c0,27.6,22.4,50,50,50c27.6,0,50-22.4,50-50C100,22.4,77.6,0,50,0z M17.5,37.1
		c21.6-0.1,35.8-9.2,44.2-17.4c3.8,5.5,10,11.4,19.9,15.1C83.7,39.3,85,44.5,85,50c0,7.3-2.2,14-6,19.6
		c-6.4-7.1-17.2-11.7-29.4-11.5C37.8,58.4,27.5,63,21.3,70c-4-5.7-6.3-12.6-6.3-20C15,45.4,15.9,41.1,17.5,37.1z M40.5,67.6
		L40.5,67.6l21,0.6c0,0,0,0,0,0c-0.1,4.9-5,8.8-10.8,8.6C44.9,76.7,40.3,72.6,40.5,67.6z M50,85L50,85C50,85,50,85,50,85L50,85z"/>
	<path class="st1" d="M42.5,51.3c3.3,1,6.4-1.6,6.2-5c-0.2-1.9-1.5-3.6-3.3-4.1c-3.3-1-6.4,1.6-6.2,5C39.4,49.1,40.7,50.7,42.5,51.3
		z"/>
	<path class="st1" d="M57.9,52.9c3.3,1,6.4-1.6,6.2-5c-0.2-1.9-1.5-3.6-3.3-4.1c-3.3-1-6.4,1.6-6.2,5C54.7,50.7,56.1,52.3,57.9,52.9
		z"/>
</g>
</svg>
