<?xml version="1.0" encoding="utf-8"?>
<!-- Generator: Adobe Illustrator 19.1.0, SVG Export Plug-In . SVG Version: 6.00 Build 0)  -->
<svg version="1.1" id="Layer_1" xmlns="http://www.w3.org/2000/svg" xmlns:xlink="http://www.w3.org/1999/xlink" x="0px" y="0px"
	 viewBox="0 0 100 100" style="enable-background:new 0 0 100 100;" xml:space="preserve">
<style type="text/css">
	.st0{fill:#FFFFFF;}
	.st1{fill:#C21E5C;}
</style>
<circle class="st0" cx="50" cy="50" r="45"/>
<g>
	<path class="st1" d="M50,0C22.4,0,0,22.4,0,50c0,27.6,22.4,50,50,50c27.6,0,50-22.4,50-50C100,22.4,77.6,0,50,0z M50,85
		c-19.3,0-35-15.7-35-35c0-19.3,15.7-35,35-35c19.3,0,35,15.7,35,35C85,69.3,69.3,85,50,85z"/>
	<path class="st1" d="M35.8,36c-6.7-2-13.2,3.2-12.6,10.1c0.3,3.9,3.1,7.3,6.8,8.4c6.7,2,13.1-3.2,12.6-10.1
		C42.3,40.5,39.6,37.1,35.8,36z"/>
	<path class="st1" d="M59.4,48.5c0.3,3.9,3.1,7.3,6.8,8.4c6.7,2,13.1-3.2,12.6-10.1c-0.3-3.9-3-7.3-6.7-8.4
		C65.4,36.3,58.8,41.5,59.4,48.5z"/>
	<path class="st1" d="M43.2,55.7c-0.7,4.4,2,8.5,6,9.1c4,0.6,7.8-2.5,8.4-6.9v0L43.2,55.7L43.2,55.7z"/>
</g>
</svg>
