<?xml version="1.0" encoding="utf-8"?>
<!-- Generator: Adobe Illustrator 19.1.0, SVG Export Plug-In . SVG Version: 6.00 Build 0)  -->
<svg version="1.1" id="Layer_1" xmlns="http://www.w3.org/2000/svg" xmlns:xlink="http://www.w3.org/1999/xlink" x="0px" y="0px"
	 viewBox="0 0 100 100" style="enable-background:new 0 0 100 100;" xml:space="preserve">
<style type="text/css">
	.st0{fill:#FFFFFF;}
	.st1{fill:#C21E5C;}
</style>
<circle class="st0" cx="50.2" cy="50" r="45"/>
<g>
	<path class="st1" d="M98.9,60.3C99.6,57,100,53.5,100,50c0-27.6-22.4-50-50-50C22.4,0,0,22.4,0,50c0,27.6,22.4,50,50,50
		c23.5,0,43.2-16.2,48.5-38C98.7,61.5,98.9,60.9,98.9,60.3z M50,85c-19.3,0-35-15.7-35-35c0-0.1,0-0.2,0-0.3c4.8-0.6,9-2.2,12.8-4.5
		c-1.7,2.1-2.6,4.9-2,7.9c0.7,3.8,3.8,6.8,7.5,7.5c6.7,1.3,12.5-4.5,11.3-11.3c-0.7-3.8-3.7-6.8-7.5-7.5c-1.8-0.3-3.5-0.2-5,0.3
		c8-6.3,13.5-15.4,17-22.8c2.2,7.3,5.7,16.6,10.5,25c-2.2,2.1-3.4,5.3-2.7,8.7c0.7,3.8,3.8,6.8,7.5,7.5c2.6,0.5,5-0.1,7-1.3
		c3,2.6,6.4,4.6,10,5.9C75.9,76.9,63.9,85,50,85z"/>
	<path class="st1" d="M40.8,63.1c-0.8,5.1,2.7,9.9,7.8,10.7c5.1,0.8,9.9-2.7,10.7-7.8v0L40.8,63.1L40.8,63.1z"/>
</g>
</svg>
