<?xml version="1.0" encoding="utf-8"?>
<!-- Generator: Adobe Illustrator 19.1.0, SVG Export Plug-In . SVG Version: 6.00 Build 0)  -->
<svg version="1.1" id="Layer_1" xmlns="http://www.w3.org/2000/svg" xmlns:xlink="http://www.w3.org/1999/xlink" x="0px" y="0px"
	 viewBox="0 0 100 100" style="enable-background:new 0 0 100 100;" xml:space="preserve">
<style type="text/css">
	.st0{fill:#FFFFFF;}
	.st1{fill:#C21E5C;}
</style>
<circle class="st0" cx="50" cy="50" r="45"/>
<g>
	<path class="st1" d="M50,0C22.4,0,0,22.4,0,50c0,27.6,22.4,50,50,50c27.6,0,50-22.4,50-50C100,22.4,77.6,0,50,0z M50,85
		c-19.3,0-35-15.7-35-35c0-3.3,0.5-6.5,1.3-9.5c1.5,0.6,3.6,1,6.6,1c12.3,0,21.4-5.9,28-12.9c6.6,7,15.8,12.9,28.1,12.9
		c1.9,0,3.5-0.1,4.8-0.4c0.7,2.8,1.2,5.8,1.2,8.9C85,69.3,69.3,85,50,85z"/>
	<path class="st1" d="M55.9,51.1c2.7,0.5,4.9-1.8,4.4-4.5c-0.3-1.5-1.5-2.7-3-2.9c-2.7-0.5-4.9,1.8-4.4,4.5
		C53.2,49.6,54.4,50.8,55.9,51.1z"/>
	<path class="st1" d="M42.7,51.1c2.7,0.5,4.9-1.8,4.4-4.5c-0.3-1.5-1.5-2.7-3-2.9c-2.7-0.5-4.9,1.8-4.4,4.5
		C40,49.6,41.2,50.8,42.7,51.1z"/>
	<path class="st1" d="M75.8,58.7c0,0-1.6,1.1-3.9,1.6c-2.9,0.7-5.4,0.1-7.5-1.5c-6.9-5.5-12.7-3.5-14.4-2.7
		c-1.8-0.8-7.6-2.8-14.4,2.7c-2.1,1.7-4.6,2.2-7.5,1.5c-2.2-0.5-3.9-1.6-3.9-1.6c-0.4-0.3-1-0.2-1.3,0.1s-0.4,0.9-0.2,1.3
		c0.2,0.3,4.8,7.8,12.7,9.1c0.8,0.1,1.5,0.2,2.3,0.2c4,0,8.1-1.7,12.2-5c4.1,3.3,8.2,5,12.2,5c0.8,0,1.5-0.1,2.3-0.2
		c8-1.3,12.5-8.8,12.7-9.1c0.3-0.4,0.2-1-0.2-1.3C76.8,58.5,76.2,58.5,75.8,58.7z"/>
</g>
</svg>
