<?xml version="1.0" encoding="utf-8"?>
<!-- Generator: Adobe Illustrator 19.1.0, SVG Export Plug-In . SVG Version: 6.00 Build 0)  -->
<svg version="1.1" id="Layer_1" xmlns="http://www.w3.org/2000/svg" xmlns:xlink="http://www.w3.org/1999/xlink" x="0px" y="0px"
	 viewBox="0 0 100 100" style="enable-background:new 0 0 100 100;" xml:space="preserve">
<style type="text/css">
	.st0{fill:#FFFFFF;}
	.st1{fill:#C21E5C;}
</style>
<circle class="st0" cx="50" cy="50" r="45"/>
<g>
	<path class="st1" d="M50,0C22.4,0,0,22.4,0,50c0,27.6,22.4,50,50,50c27.6,0,50-22.4,50-50C100,22.4,77.6,0,50,0z M50,85
		c-19.3,0-35-15.7-35-35c0-0.1,0-0.2,0-0.3c5.3-0.7,10-2.6,14.1-5.3c-0.1,0.9,0,1.9,0.3,2.9c0.9,3.1,3.6,5.4,6.8,5.7
		c5.7,0.6,10.1-4.7,8.5-10.2c-0.9-3.1-3.6-5.4-6.8-5.7c-0.1,0-0.2,0-0.3,0C44.2,30,48.5,21.3,51.1,15C69.9,15.6,85,31.1,85,50
		C85,69.3,69.3,85,50,85z"/>
	<path class="st1" d="M63.8,34.8c-5.7-0.6-10.1,4.7-8.6,10.2c0.9,3.1,3.6,5.4,6.8,5.7c5.7,0.6,10.1-4.7,8.5-10.2
		C69.8,37.5,67,35.2,63.8,34.8z"/>
	<path class="st1" d="M70.2,53.2L31.1,63.6l0,0C34,74.4,45,80.8,55.8,78C66.6,75.1,73.1,64,70.2,53.2L70.2,53.2z"/>
</g>
</svg>
