<?xml version="1.0" encoding="utf-8"?>
<!-- Generator: Adobe Illustrator 19.1.0, SVG Export Plug-In . SVG Version: 6.00 Build 0)  -->
<svg version="1.1" id="Layer_1" xmlns="http://www.w3.org/2000/svg" xmlns:xlink="http://www.w3.org/1999/xlink" x="0px" y="0px"
	 viewBox="0 0 100 100" style="enable-background:new 0 0 100 100;" xml:space="preserve">
<style type="text/css">
	.st0{fill:#FFFFFF;}
	.st1{fill:#C21E5C;}
</style>
<circle class="st0" cx="49.9" cy="50" r="45"/>
<path class="st1" d="M59.5,69.3h-9.6c-1.7,0-3,1.3-3,3s1.3,3,3,3h9.6c1.7,0,3-1.3,3-3S61.2,69.3,59.5,69.3z"/>
<path class="st1" d="M50,0C22.4,0,0,22.4,0,50c0,27.6,22.4,50,50,50c27.6,0,50-22.4,50-50C100,22.4,77.6,0,50,0z M50,15
	c14.1,0,26.2,8.3,31.8,20.4H18.2C23.8,23.3,35.9,15,50,15z M50,85c-15.6,0-28.8-10.2-33.3-24.4l22.9-0.5l9.6-9.6l10.2,10.2
	c0,0,14.8,0.3,23.9,0.2C78.6,74.9,65.5,85,50,85z"/>
</svg>
