<?xml version="1.0" encoding="utf-8"?>
<!-- Generator: Adobe Illustrator 19.1.0, SVG Export Plug-In . SVG Version: 6.00 Build 0)  -->
<svg version="1.1" id="Layer_1" xmlns="http://www.w3.org/2000/svg" xmlns:xlink="http://www.w3.org/1999/xlink" x="0px" y="0px"
	 viewBox="0 0 100 100" style="enable-background:new 0 0 100 100;" xml:space="preserve">
<style type="text/css">
	.st0{fill:#FFFFFF;}
	.st1{fill:#C21E5C;}
</style>
<circle class="st0" cx="50.6" cy="50" r="45"/>
<g>
	<path class="st1" d="M50,0C22.4,0,0,22.4,0,50c0,27.6,22.4,50,50,50c27.6,0,50-22.4,50-50C100,22.4,77.6,0,50,0z M50,85
		c-19.3,0-35-15.7-35-35c0-17.2,12.4-31.5,28.7-34.4c3.4,3.9,7.7,9.3,8.5,12.7c0,0,2.5-7.2,6.1-12.3C73.6,19.7,85,33.5,85,50
		C85,69.3,69.3,85,50,85z"/>
	<path class="st1" d="M65.2,48.6c0.2,2.9,2.3,5.5,5.1,6.4c5,1.5,9.9-2.4,9.5-7.7c-0.2-2.9-2.3-5.5-5.1-6.4
		C69.7,39.4,64.8,43.4,65.2,48.6z"/>
	<path class="st1" d="M34.5,47.3c-0.2-2.9-2.3-5.5-5.1-6.4c-5.1-1.5-10,2.4-9.6,7.7c0.2,2.9,2.3,5.5,5.1,6.4
		C30,56.5,34.9,52.6,34.5,47.3z"/>
	<path class="st1" d="M59,72.5c-0.3-1.4-1.4-3.3-2.8-5.3l-10.5-0.3c-1.5,3-2.4,5.6-2.4,5.6c-0.3-1.6-1.6-3.7-3.2-5.7l-9.1-0.3v0
		c-0.2,6.6,8.4,12.2,19.2,12.5c10.8,0.3,19.7-4.8,19.9-11.3v0l-8.9-0.3C59.9,70.1,59,72.5,59,72.5z"/>
</g>
</svg>
