<?xml version="1.0" encoding="utf-8"?>
<!-- Generator: Adobe Illustrator 19.1.0, SVG Export Plug-In . SVG Version: 6.00 Build 0)  -->
<svg version="1.1" id="Layer_1" xmlns="http://www.w3.org/2000/svg" xmlns:xlink="http://www.w3.org/1999/xlink" x="0px" y="0px"
	 viewBox="0 0 100 100" style="enable-background:new 0 0 100 100;" xml:space="preserve">
<style type="text/css">
	.st0{fill:#FFFFFF;}
	.st1{fill:#C21E5C;}
</style>
<circle class="st0" cx="50.2" cy="50" r="45"/>
<path class="st1" d="M32.4,49.5c-4.4,0-8,3.6-8,8c0,4.4,3.6,8,8,8c4.4,0,8-3.6,8-8C40.4,53.1,36.8,49.5,32.4,49.5z"/>
<path class="st1" d="M67.6,49.5c-4.4,0-8,3.6-8,8c0,4.4,3.6,8,8,8c4.4,0,8-3.6,8-8C75.6,53.1,72,49.5,67.6,49.5z"/>
<path class="st1" d="M50,0C22.4,0,0,22.4,0,50c0,27.6,22.4,50,50,50c27.6,0,50-22.4,50-50C100,22.4,77.6,0,50,0z M50,85.1
	c-19.4,0-35.1-15.7-35.1-35.1c0-2.1,0.3-4.1,0.6-6.1h69c0.4,2,0.6,4,0.6,6.1C85.1,69.4,69.4,85.1,50,85.1z"/>
<path class="st1" d="M55,69.3h-9.6c-1.7,0-3,1.3-3,3s1.3,3,3,3H55c1.7,0,3-1.3,3-3S56.7,69.3,55,69.3z"/>
</svg>
