<?xml version="1.0" encoding="utf-8"?>
<!-- Generator: Adobe Illustrator 19.1.0, SVG Export Plug-In . SVG Version: 6.00 Build 0)  -->
<svg version="1.1" id="Layer_1" xmlns="http://www.w3.org/2000/svg" xmlns:xlink="http://www.w3.org/1999/xlink" x="0px" y="0px"
	 viewBox="0 0 100 100" style="enable-background:new 0 0 100 100;" xml:space="preserve">
<style type="text/css">
	.st0{fill:#FFFFFF;}
	.st1{fill:#C21E5C;}
</style>
<circle class="st0" cx="50" cy="50" r="45"/>
<g>
	<path class="st1" d="M50,0C22.4,0,0,22.4,0,50c0,27.6,22.4,50,50,50c27.6,0,50-22.4,50-50C100,22.4,77.6,0,50,0z M50,15
		c14.7,0,27.3,9.1,32.5,22l-60.1-8.5C28.8,20.3,38.8,15,50,15z M50,85c-19.3,0-35-15.7-35-35c0-6.3,1.7-12.2,4.6-17.3l29.2,4.7
		c-0.7,8.7,3.5,16.2,9.7,17.1c6.1,0.9,12.1-5,14-13.3l11.9,1.9c0.4,2.2,0.7,4.5,0.7,6.8C85,69.3,69.3,85,50,85z"/>
	<path class="st1" d="M44.2,44.4c-0.8-2.9-3.4-5.1-6.5-5.4c-5.4-0.6-9.7,4.5-8.2,9.7c0.8,2.9,3.5,5.1,6.5,5.4
		C41.5,54.6,45.7,49.6,44.2,44.4z"/>
	<path class="st1" d="M56.9,60.5v5.1h-8.8v-4.9c-8.5,1.9-14.5,8.7-14,16.3v0L71,74.3l0,0C70.4,67.4,64.6,61.9,56.9,60.5z"/>
</g>
</svg>
