<?xml version="1.0" encoding="utf-8"?>
<!-- Generator: Adobe Illustrator 19.1.0, SVG Export Plug-In . SVG Version: 6.00 Build 0)  -->
<svg version="1.1" id="Layer_1" xmlns="http://www.w3.org/2000/svg" xmlns:xlink="http://www.w3.org/1999/xlink" x="0px" y="0px"
	 viewBox="0 0 100 100" style="enable-background:new 0 0 100 100;" xml:space="preserve">
<style type="text/css">
	.st0{fill:#C21E5C;}
</style>
<path class="st0" d="M98.4,31.8c-1.5-4.1-7.8-5.4-18.7-4.1c-2.6,0.3-5.4,0.8-8.4,1.4c-5.4-5.5-13-9-21.3-9
	c-15.9,0-29,12.5-29.8,28.2C8.4,55-0.6,62.4,1.6,68.2c1.2,3.3,5.6,4.6,11.6,4.6c4.5,0,9.8-0.7,15.5-1.9c5.4,5.5,13,9,21.3,9
	c15.9,0,28.9-12.5,29.8-28.2c2.6-1.5,5.1-3,7.2-4.5C96.1,41.1,99.9,35.9,98.4,31.8z M50,24.3c14.1,0,25.5,11.3,25.7,25.3
	c-6.5,3.5-14,6.9-22.1,9.9c-8.6,3.2-16.4,5.5-23.2,7.1c-3.8-4.5-6.1-10.3-6.1-16.6C24.3,35.8,35.8,24.3,50,24.3z M5.2,66.8
	C4.3,64.5,9.7,59,20.3,52.7c0.5,5.5,2.5,10.6,5.6,14.9C13.8,69.8,6.1,69.2,5.2,66.8z M50,75.7c-6.2,0-11.9-2.2-16.4-5.9
	c7.4-1.8,14.9-4.2,21.3-6.6c7.3-2.8,14.3-5.8,20.4-9C73.4,66.3,62.8,75.7,50,75.7z M84.9,44.1c-1.6,1.1-3.3,2.2-5.2,3.3
	c-0.5-5.5-2.5-10.6-5.6-14.9c2.1-0.4,4.1-0.7,6-0.9c2.6-0.3,4.8-0.5,6.7-0.5c5.5,0,7.6,1.2,8,2.1C95.3,34.4,93.7,38.1,84.9,44.1z"/>
</svg>
