<?xml version="1.0" encoding="utf-8"?>
<!-- Generator: Adobe Illustrator 19.1.0, SVG Export Plug-In . SVG Version: 6.00 Build 0)  -->
<svg version="1.1" id="Layer_1" xmlns="http://www.w3.org/2000/svg" xmlns:xlink="http://www.w3.org/1999/xlink" x="0px" y="0px"
	 viewBox="0 0 100 100" style="enable-background:new 0 0 100 100;" xml:space="preserve">
<style type="text/css">
	.st0{fill:#C21E5C;}
</style>
<path class="st0" d="M74.9,35.2c0.3-0.1,0.5-0.3,0.8-0.5l1.3-1.3c1-1,1-2.6,0-3.6l-3.2-3.2c-1-1-2.6-1-3.6,0l-1.3,1.3
	c-0.2,0.2-0.4,0.5-0.5,0.8c-3.7-2.7-8.1-4.5-12.8-5.3c0.1-0.3,0.2-0.6,0.2-0.9v-1.8c0-1.4-1.1-2.5-2.5-2.5h-4.5
	c-1.4,0-2.5,1.1-2.5,2.5v1.8c0,0.3,0.1,0.6,0.2,0.9c-4.7,0.7-9.1,2.6-12.8,5.3c-0.1-0.3-0.3-0.5-0.5-0.7l-1.3-1.3c-1-1-2.6-1-3.6,0
	l-3.2,3.2c-1,1-1,2.6,0,3.6l1.3,1.3c0.2,0.2,0.4,0.4,0.7,0.5c-3.6,4.9-5.7,11-5.7,17.6c0,16.4,13.3,29.7,29.7,29.7
	c16.4,0,29.7-13.3,29.7-29.7C80.7,46.2,78.6,40.1,74.9,35.2z M51,78.4c-14.1,0-25.5-11.4-25.5-25.5c0-14.1,11.4-25.5,25.5-25.5
	c14.1,0,25.5,11.4,25.5,25.5C76.5,66.9,65.1,78.4,51,78.4z"/>
</svg>
